<?xml version="1.0" encoding="UTF-8"?>
<!DOCTYPE svg PUBLIC "-//W3C//DTD SVG 1.1//EN" "http://www.w3.org/Graphics/SVG/1.1/DTD/svg11.dtd">
<svg xmlns="http://www.w3.org/2000/svg" version="1.1" width="28px" height="28px" style="shape-rendering:geometricPrecision; text-rendering:geometricPrecision; image-rendering:optimizeQuality; fill-rule:evenodd; clip-rule:evenodd" xmlns:xlink="http://www.w3.org/1999/xlink">
<g><path style="opacity:1" fill="#f9f9f8" d="M -0.5,-0.5 C 4.83333,-0.5 10.1667,-0.5 15.5,-0.5C 15.5,-0.166667 15.5,0.166667 15.5,0.5C 8.06347,0.274324 4.73013,3.94099 5.5,11.5C 4.89022,12.391 4.55688,13.391 4.5,14.5C 2.91187,16.5273 2.41187,18.8606 3,21.5C 3.66667,20.8333 4.33333,20.1667 5,19.5C 5.36614,21.4517 6.19947,23.1184 7.5,24.5C 5.06732,25.5477 5.06732,26.2144 7.5,26.5C 7.5,26.8333 7.5,27.1667 7.5,27.5C 4.83333,27.5 2.16667,27.5 -0.5,27.5C -0.5,18.1667 -0.5,8.83333 -0.5,-0.5 Z"/></g>
<g><path style="opacity:1" fill="#fbfafa" d="M 15.5,0.5 C 15.5,0.166667 15.5,-0.166667 15.5,-0.5C 19.5,-0.5 23.5,-0.5 27.5,-0.5C 27.5,8.83333 27.5,18.1667 27.5,27.5C 20.8333,27.5 14.1667,27.5 7.5,27.5C 7.5,27.1667 7.5,26.8333 7.5,26.5C 8.5,26.5 9.5,26.5 10.5,26.5C 14.1817,26.6653 17.8484,26.4986 21.5,26C 20.9558,25.2828 20.2891,24.7828 19.5,24.5C 20.8005,23.1184 21.6339,21.4517 22,19.5C 22.6667,20.1667 23.3333,20.8333 24,21.5C 24.5881,18.8606 24.0881,16.5273 22.5,14.5C 22.4431,13.391 22.1098,12.391 21.5,11.5C 22.3284,6.14815 20.3284,2.48148 15.5,0.5 Z"/></g>
<g><path style="opacity:1" fill="#171512" d="M 15.5,0.5 C 20.3284,2.48148 22.3284,6.14815 21.5,11.5C 20.1667,11.5 18.8333,11.5 17.5,11.5C 16.5084,11.6716 15.8417,11.3382 15.5,10.5C 16.7562,10.5386 17.7562,10.0386 18.5,9C 15.1667,8.33333 11.8333,8.33333 8.5,9C 9.24382,10.0386 10.2438,10.5386 11.5,10.5C 10.4324,11.4345 9.09903,11.7678 7.5,11.5C 6.83333,11.5 6.16667,11.5 5.5,11.5C 4.73013,3.94099 8.06347,0.274324 15.5,0.5 Z"/></g>
<g><path style="opacity:1" fill="#cfd0d0" d="M 14.5,3.5 C 17.8606,4.20318 18.1939,5.53651 15.5,7.5C 14.5713,6.31116 14.238,4.97782 14.5,3.5 Z"/></g>
<g><path style="opacity:1" fill="#d3d3d3" d="M 10.5,3.5 C 11.2389,3.36899 11.9056,3.53566 12.5,4C 11.8878,5.30326 11.5545,6.46992 11.5,7.5C 9.35765,6.56289 9.02431,5.22955 10.5,3.5 Z"/></g>
<g><path style="opacity:1" fill="#efa903" d="M 15.5,10.5 C 14.1667,10.5 12.8333,10.5 11.5,10.5C 10.2438,10.5386 9.24382,10.0386 8.5,9C 11.8333,8.33333 15.1667,8.33333 18.5,9C 17.7562,10.0386 16.7562,10.5386 15.5,10.5 Z"/></g>
<g><path style="opacity:1" fill="#5b1a0d" d="M 11.5,10.5 C 12.8333,10.5 14.1667,10.5 15.5,10.5C 15.8417,11.3382 16.5084,11.6716 17.5,11.5C 14.1667,12.8333 10.8333,12.8333 7.5,11.5C 9.09903,11.7678 10.4324,11.4345 11.5,10.5 Z"/></g>
<g><path style="opacity:1" fill="#e8231f" d="M 5.5,11.5 C 6.16667,11.5 6.83333,11.5 7.5,11.5C 10.8333,12.8333 14.1667,12.8333 17.5,11.5C 18.8333,11.5 20.1667,11.5 21.5,11.5C 22.1098,12.391 22.4431,13.391 22.5,14.5C 21.209,14.2627 20.209,14.596 19.5,15.5C 17.1667,15.5 14.8333,15.5 12.5,15.5C 11.596,16.209 11.2627,17.209 11.5,18.5C 10.5,18.5 9.5,18.5 8.5,18.5C 8.5,17.5 8.5,16.5 8.5,15.5C 8.15829,14.6618 7.49162,14.3284 6.5,14.5C 5.83333,14.5 5.16667,14.5 4.5,14.5C 4.55688,13.391 4.89022,12.391 5.5,11.5 Z"/></g>
<g><path style="opacity:1" fill="#171514" d="M 4.5,14.5 C 5.16667,14.5 5.83333,14.5 6.5,14.5C 6.20528,16.7354 6.53862,18.7354 7.5,20.5C 8.07501,22.4113 9.07501,24.078 10.5,25.5C 9.39105,25.4431 8.39105,25.1098 7.5,24.5C 6.19947,23.1184 5.36614,21.4517 5,19.5C 4.33333,20.1667 3.66667,20.8333 3,21.5C 2.41187,18.8606 2.91187,16.5273 4.5,14.5 Z"/></g>
<g><path style="opacity:1" fill="#221f1d" d="M 22.5,14.5 C 24.0881,16.5273 24.5881,18.8606 24,21.5C 23.3333,20.8333 22.6667,20.1667 22,19.5C 21.6339,21.4517 20.8005,23.1184 19.5,24.5C 18.609,25.1098 17.609,25.4431 16.5,25.5C 19.1426,22.7664 20.1426,19.4331 19.5,15.5C 20.209,14.596 21.209,14.2627 22.5,14.5 Z"/></g>
<g><path style="opacity:1" fill="#816c6b" d="M 6.5,14.5 C 7.49162,14.3284 8.15829,14.6618 8.5,15.5C 7.54885,16.9187 7.21552,18.5853 7.5,20.5C 6.53862,18.7354 6.20528,16.7354 6.5,14.5 Z"/></g>
<g><path style="opacity:1" fill="#f8f7f7" d="M 8.5,15.5 C 8.5,16.5 8.5,17.5 8.5,18.5C 9.56764,19.4345 10.901,19.7678 12.5,19.5C 12.5,18.1667 12.5,16.8333 12.5,15.5C 14.8333,15.5 17.1667,15.5 19.5,15.5C 20.1426,19.4331 19.1426,22.7664 16.5,25.5C 14.5,25.5 12.5,25.5 10.5,25.5C 9.07501,24.078 8.07501,22.4113 7.5,20.5C 7.21552,18.5853 7.54885,16.9187 8.5,15.5 Z"/></g>
<g><path style="opacity:1" fill="#f59695" d="M 12.5,15.5 C 12.5,16.8333 12.5,18.1667 12.5,19.5C 10.901,19.7678 9.56764,19.4345 8.5,18.5C 9.5,18.5 10.5,18.5 11.5,18.5C 11.2627,17.209 11.596,16.209 12.5,15.5 Z"/></g>
<g><path style="opacity:1" fill="#f3aa09" d="M 7.5,24.5 C 8.39105,25.1098 9.39105,25.4431 10.5,25.5C 10.5,25.8333 10.5,26.1667 10.5,26.5C 9.5,26.5 8.5,26.5 7.5,26.5C 5.06732,26.2144 5.06732,25.5477 7.5,24.5 Z"/></g>
<g><path style="opacity:1" fill="#b68011" d="M 19.5,24.5 C 20.2891,24.7828 20.9558,25.2828 21.5,26C 17.8484,26.4986 14.1817,26.6653 10.5,26.5C 10.5,26.1667 10.5,25.8333 10.5,25.5C 12.5,25.5 14.5,25.5 16.5,25.5C 17.609,25.4431 18.609,25.1098 19.5,24.5 Z"/></g>
</svg>
